<svg xmlns="http://www.w3.org/2000/svg" viewBox="0 0 512 512">
  <!-- Rounded square background -->
  <rect width="512" height="512" rx="96" ry="96" fill="#5865F2"/>
  
  <!-- Material Icons Psychology Icon - properly centered and scaled -->
  <g transform="translate(256, 256)">
    <g transform="scale(10, 10) translate(-12, -12)">
      <!-- This is the exact path from Material Icons for psychology -->
      <path fill="#ffffff" d="M13 8.57c-.79 0-1.43.64-1.43 1.43s.64 1.43 1.43 1.43 1.43-.64 1.43-1.43-.64-1.43-1.43-1.43z"/>
      <path fill="#ffffff" d="M13 3C8.03 3 4 7.03 4 12h2c0-3.86 3.14-7 7-7s7 3.14 7 7-3.14 7-7 7c-1.88 0-3.64-.74-4.95-2.05l-1.41 1.41C8.27 19.99 10.51 21 13 21c4.97 0 9-4.03 9-9s-4.03-9-9-9z"/>
      <path fill="#ffffff" d="M12 14v2c0 1.1.9 2 2 2h1v3h2v-3h1c1.1 0 2-.9 2-2v-2c0-1.1-.9-2-2-2h-4c-1.1 0-2 .9-2 2z"/>
      <circle fill="#5865F2" cx="15" cy="14" r="1"/>
    </g>
  </g>
</svg>